<mxfile host="app.diagrams.net" agent="Mozilla/5.0 (Windows NT 10.0; Win64; x64) AppleWebKit/537.36 (KHTML, like Gecko) Chrome/132.0.0.0 YaBrowser/25.2.0.0 Safari/537.36" version="26.0.15">
  <diagram name="Страница — 1" id="RtcNj7bt_Np1O5CywCwZ">
    <mxGraphModel dx="989" dy="529" grid="1" gridSize="3.937" guides="1" tooltips="1" connect="1" arrows="1" fold="1" page="1" pageScale="1" pageWidth="827" pageHeight="1169" math="0" shadow="0">
      <root>
        <mxCell id="0" />
        <mxCell id="1" parent="0" />
        <mxCell id="KSh6KJUN78Y9kG90A8SH-1" value="" style="rounded=0;whiteSpace=wrap;html=1;fillColor=none;strokeWidth=2;" vertex="1" parent="1">
          <mxGeometry x="78.74" y="19.685" width="728.3449999999999" height="1129.9189999999999" as="geometry" />
        </mxCell>
        <mxCell id="KSh6KJUN78Y9kG90A8SH-2" value="" style="endArrow=none;html=1;rounded=0;strokeWidth=1.9685;endSize=5.9055;" edge="1" parent="1">
          <mxGeometry width="50" height="50" relative="1" as="geometry">
            <mxPoint x="78.74" y="933.069" as="sourcePoint" />
            <mxPoint x="807.0849999999999" y="933.069" as="targetPoint" />
          </mxGeometry>
        </mxCell>
        <mxCell id="KSh6KJUN78Y9kG90A8SH-3" value="" style="endArrow=none;html=1;rounded=0;strokeWidth=1.9685;" edge="1" parent="1">
          <mxGeometry width="50" height="50" relative="1" as="geometry">
            <mxPoint x="334.645" y="933.069" as="sourcePoint" />
            <mxPoint x="334.645" y="1149.604" as="targetPoint" />
          </mxGeometry>
        </mxCell>
      </root>
    </mxGraphModel>
  </diagram>
</mxfile>
